<?xml version="1.0" encoding="utf-8"?>
<!-- Generator: Adobe Illustrator 23.1.1, SVG Export Plug-In . SVG Version: 6.00 Build 0)  -->
<svg version="1.1" id="レイヤー_1" xmlns="http://www.w3.org/2000/svg" xmlns:xlink="http://www.w3.org/1999/xlink" x="0px"
	 y="0px" viewBox="0 0 92 104.1" style="enable-background:new 0 0 92 104.1;" xml:space="preserve">
<style type="text/css">
	.st0{fill:#FFFFFF;}
</style>
<path class="st0" d="M13.2,90.9h65.7V13.2H31.4c-0.3,0-0.9,0.3-1.2,0.6c-5.6,6-11.1,12.1-16.6,18.1c-0.3,0.3-0.5,0.9-0.5,1.5
	L13.2,90.9z M85.4,0C89,0,92,3,92,6.6v90.9c0,3.6-2.9,6.6-6.6,6.6H6.6c-3.6,0-6.6-3-6.6-6.6c0-0.7,0-64,0-66.5
	c0-2.6,0.8-4.7,2.6-6.6L22.4,2.8c1.7-1.9,3.7-2.7,6.2-2.7h56.8V0z M26.3,45.8c-2.9,0-5.3-2.4-5.3-5.3s2.4-5.3,5.3-5.3h8.9v-9
	c0-2.9,2.4-5.3,5.3-5.3s5.3,2.4,5.3,5.3v14.2c0,2.9-2.4,5.3-5.3,5.3H26.3V45.8z"/>
</svg>
